<svg xmlns="http://www.w3.org/2000/svg" width="113.5" height="166" viewBox="0 0 113.5 166"><path d="M85.9 32.5a13.6 13.6 0 1 0 13.6 13.6 13.6 13.6 0 0 0-13.6-13.6zm0 25.2a11.6 11.6 0 1 1 11.6-11.6 11.6 11.6 0 0 1-11.6 11.6z"/><circle cx="85.9" cy="46.1" r="6.8"/><path d="M29.2 59.7a13.6 13.6 0 1 0-13.6-13.6 13.6 13.6 0 0 0 13.6 13.6zm0-25.2a11.6 11.6 0 1 1-11.6 11.6 11.6 11.6 0 0 1 11.6-11.6z"/><circle cx="29.2" cy="46.1" r="6.8"/><path d="M113.3 46.8v-.7a28.9 28.9 0 0 0-2.2-11 56.6 56.6 0 0 0-2.8-7.4l.3-21.1a4.5 4.5 0 0 0-5.4-4.6L83 6.4a56.9 56.9 0 0 0-52.3-.1L11.2 2a4.5 4.5 0 0 0-5.4 4.4v20a56.5 56.5 0 0 0-3.4 8.8A28.9 28.9 0 0 0 .2 46.1v.7c0 .2-.2 2.9-.2 4.4a56.2 56.2 0 0 0 4.9 22.9V78a87.8 87.8 0 0 0 27.4 63.7L27 161.8h39a87.7 87.7 0 0 0 26.9 4.2h15.6V74.4a56.2 56.2 0 0 0 5-22.9c0-1.6-.1-3.1-.2-4.7zM8.8 6.4A1.5 1.5 0 0 1 10.2 5h.3l20.6 4.5.5-.3a53.9 53.9 0 0 1 50.5.1l.5.3L103.9 5a1.5 1.5 0 0 1 1.8 1.4l-.2 19.7a29 29 0 0 0-48.7 10.8A29 29 0 0 0 8.7 25.5zm58.7 63.3L57 80.3 46.3 69.6a29.2 29.2 0 0 0 10.5-14.3 29.2 29.2 0 0 0 10.7 14.4zM5.1 36.2a26 26 0 1 1-1.9 10.7 53.2 53.2 0 0 1 1.9-10.7zm27 121.6l3.5-13.1a88.3 88.3 0 0 0 20.2 13.1zm60.8 5.2a85.1 85.1 0 0 1-85-83 56.9 56.9 0 0 0 48.3 28H58v8.6A48 48 0 0 0 94.1 163zm12.6-.5a46 46 0 0 1-45.5-46v-8.7a56.4 56.4 0 0 0 36.5-16.2 57.5 57.5 0 0 0 9-11.4zM94.4 89.4A53.4 53.4 0 0 1 56.8 105h-.5A54 54 0 0 1 3.7 60a29 29 0 0 0 40 11.2L57 84.5l13.1-13.1A29 29 0 0 0 109.8 60a53.4 53.4 0 0 1-15.4 29.4zM84.3 72.1a26 26 0 1 1 24-36.1 53.1 53.1 0 0 1 2 10.9 26.1 26.1 0 0 1-26 25.2z"/></svg>