<svg width="93" height="100" viewBox="0 0 93 100" version="1.1" xmlns="http://www.w3.org/2000/svg" xmlns:xlink="http://www.w3.org/1999/xlink"><defs><path d="M45.073 91.6c.179-.003.26.124.352.242l2.144 2.713 1.414 1.788c.063.079.13.153.224.261.101-.34.04-.656.05-.965.012-.334.004-.669.003-1.004-.001-.321-.005-.643-.006-.965v-1.964h1.844c.018 2.767.003 5.502.01 8.291a20.16 20.16 0 0 1-1.833-.046c.007-.577-.29-.982-.609-1.385-1.03-1.3-2.051-2.608-3.077-3.913a.854.854 0 0 0-.311-.264l-.126 5.504c-.621.025-1.218-.012-1.863-.04.064-2.759.161-5.49.25-8.25.548 0 1.04.005 1.534-.003zm17.61-2.688c.177.265 2.108 6.568 2.425 7.904l-1.822.564-.98-3.292-3.493 1.07.894 3.317-1.853.568-2.125-7.988 1.81-.562.842 3.072c1.163-.322 2.296-.69 3.464-1.049l-.895-3.063 1.734-.54zm-29.445-.074l5.736 1.878-.467 1.574-2.608-.85-1.317-.43-.309 1.006-.16.518c1.099.364 2.174.72 3.275 1.083l-.476 1.565-3.273-1.065-.499 1.643c1.288.458 2.589.843 3.917 1.305l-.469 1.568-5.74-1.883 2.39-7.912zm36.856-4.078l7.291 4.88c-.55.427-1.072.83-1.609 1.245l-1.47-1.03-3.36 2.18c.08.598.16 1.194.249 1.844l-1.696.935c-.22-1.512-.371-2.987-.558-4.457-.187-1.479-.357-2.96-.54-4.487l1.693-1.11zm-46.187-1.298c1.068.775 2.11 1.51 3.128 2.282.314.239.588.553.829.875.435.581.54 1.234.222 1.918-.326.701-.849 1.123-1.615 1.175-.092.006-.185.015-.319.026.09.152.163.268.23.387.725 1.29-.157 3.043-1.594 3.172a2.379 2.379 0 0 1-1.232-.199 7.159 7.159 0 0 1-1.045-.575c-.968-.666-1.922-1.356-2.88-2.038-.07-.05-.131-.111-.208-.178l4.484-6.845zm-1.033 5.098l-1.09 1.66c.613.415 1.197.814 1.786 1.205.08.053.184.07.28.094.345.084.63-.027.86-.303.363-.435.339-.987-.138-1.39-.532-.45-1.115-.836-1.698-1.266zm47.344-1.592c.163 1.143.288 2.19.483 3.279l2.17-1.408-2.653-1.87zm-45.547-1.153l-1.014 1.547c.42.293.796.562 1.178.82.102.07.221.118.338.154.446.139.823-.012 1.053-.41.209-.362.166-.75-.199-1.07-.422-.37-.888-.686-1.356-1.04zm55.326-10.757l3.666 8.526-1.373 1.52-8.385-3.314 1.532-1.428 5.873 2.369c-.058-.165-.087-.267-.129-.365-.76-1.76-1.515-3.523-2.288-5.277-.119-.269-.128-.453.071-.687.351-.41.663-.857 1.033-1.344zm-63.538.828a4.4 4.4 0 0 1 1.647 1.283c.453.556.754 1.2.963 1.915l1.086-.102c.028.188.057.36.077.534.019.165.028.331.045.549l-1.06.146c-.025 1.29-.434 2.391-1.33 3.266-.706.69-1.544 1.11-2.507 1.223-2.21.258-4.13-1.256-4.755-3.565l-1.116.09-.15-1.064 1.129-.153c.035-1.316.473-2.43 1.41-3.3a4.302 4.302 0 0 1 2.534-1.161c.705-.074 1.378.053 2.027.34zm.88 4.512l-4.89.526c.187 1.168 1.528 2.04 2.78 1.84 1.16-.184 2.237-1.38 2.11-2.366zm-2.565-2.945c-1.255.056-2.32 1.06-2.453 2.37l4.924-.534c-.207-1.047-1.35-1.886-2.47-1.836zm35.624-1.026c.317.144.635.287.945.446 1.404.722 2.85 1.286 4.449 1.31-5.212 1.547-10.42 1.55-15.702.023.63-.092 1.192-.15 1.743-.26.743-.15 1.443-.442 2.129-.773.526-.254 1.051-.513 1.583-.753 1.617-.732 3.237-.727 4.853.007zm34.874-11.206l7.17 3.608-.828 1.711c-.487-.261-.955-.177-1.43-.057-1.63.415-3.263.82-4.896 1.23-.078.019-.153.054-.295.105l4.774 2.555-.847 1.747-7.054-3.856c.25-.517.474-1.002.725-1.471.047-.09.194-.144.305-.173 1.39-.358 2.782-.709 4.173-1.062.534-.135 1.067-.272 1.6-.408l.014-.078-4.244-2.125.833-1.726zm-74.62 0L11.48 67l-2.743 1.39c.628.477 1.278.763 1.95 1.005.669.24 1.36.36 2.083.396l.862 1.869c-1.75.06-3.251-.543-4.742-1.376-.405.864-.749 1.753-1.12 2.627-.375.881-.743 1.765-1.142 2.712l-.492-1.062c-.129-.278-.244-.565-.39-.832-.124-.224-.12-.413-.016-.648.523-1.195 1.029-2.397 1.54-3.597a.951.951 0 0 0 .09-.403l-3.054 1.525-.827-1.78 4.77-2.398 2.402-1.207zm42.245 5.135c.261.145.524.288.779.447 1.425.892 2.974 1.286 4.629 1.298 1.778.013 3.461-.338 4.995-1.32.315-.202.643-.384.971-.564.914-.501 1.874-.86 2.903-1.002.677-.094 1.355-.083 2.073-.025-.047.094-.072.176-.12.237-2.397 3.063-5.434 5.026-9.187 5.692-2.25.4-4.46.187-6.569-.784-.54-.249-1.052-.567-1.572-.863-.83-.471-1.69-.841-2.631-1a6.98 6.98 0 0 0-4.268.597c-.404.193-.802.405-1.182.644-1.73 1.087-3.615 1.546-5.62 1.578-2.465.039-4.726-.698-6.86-1.922-1.71-.981-3.155-2.296-4.388-3.869-.06-.078-.113-.163-.205-.298 1.503-.165 2.899.01 4.222.634.673.318 1.322.696 1.97 1.07.828.476 1.69.858 2.627 1.012 2.369.39 4.653.213 6.772-1.106.89-.555 1.816-1.05 2.828-1.33 2.716-.752 5.335-.514 7.833.874zm17.333-8.15c.943.115 1.876.314 2.813.478.096.017.188.057.319.098l-1.623 2.94c-.693-.07-1.354-.153-2.018-.202-1.708-.126-3.319.224-4.813 1.113-.504.3-1.015.589-1.505.912-1.635 1.075-3.428 1.388-5.327 1.28-1.75-.102-3.368-.635-4.884-1.538-.783-.467-1.567-.944-2.44-1.2-2.468-.723-4.864-.575-7.154.7-.534.298-1.059.613-1.6.897-1.8.947-3.715 1.264-5.718 1.125-1.39-.096-2.653-.551-3.832-1.308-.536-.344-1.089-.661-1.64-.978-1.38-.793-2.867-1.1-4.43-1.01-.715.04-1.427.13-2.198.202l-1.625-2.945c.293-.071.55-.139.808-.196 1.09-.24 2.187-.417 3.304-.437a9.137 9.137 0 0 1 4.864 1.282l1.332.787c.222.13.446.26.67.386 2.085 1.175 4.267 1.296 6.494.554.617-.206 1.184-.575 1.77-.874.732-.372 1.443-.8 2.196-1.114 1.615-.674 3.31-.796 5.03-.672 1.712.124 3.283.695 4.758 1.586.342.206.692.399 1.039.596 1.32.75 2.74.98 4.227.91 1.262-.058 2.427-.432 3.518-1.082.59-.352 1.184-.696 1.774-1.046 1.833-1.09 3.803-1.5 5.891-1.244zm18.518-7.137l.832 1.558-.283.241c-.612.527-.892 1.214-.898 2.032 0 .09.007.18.023.269.104.562.64.778 1.071.417.15-.126.284-.292.38-.467.147-.266.251-.557.379-.835.191-.417.357-.852.587-1.245.609-1.04 1.438-1.428 2.5-1.214 1.108.222 1.84.968 2.037 2.116.25 1.45-.194 3.68-2.034 4.837-.063.039-.13.072-.205.114-.045-.07-.09-.13-.126-.195-.25-.457-.497-.915-.76-1.401.134-.096.253-.181.373-.265.67-.472 1.094-1.111 1.185-1.958a2.011 2.011 0 0 0-.041-.685c-.17-.682-.836-.872-1.32-.38a2.369 2.369 0 0 0-.392.558c-.142.27-.255.557-.37.841-.23.573-.507 1.112-.91 1.58-1.079 1.25-3.255.78-3.781-.814a3.779 3.779 0 0 1-.185-1.481 5.9 5.9 0 0 1 .431-1.868c.313-.739.807-1.31 1.507-1.755zM60.946 39.731l.193 1.464h1.326l.213-1.444h1.516l.21 1.452h1.325l.196-1.456h1.368c-.042.515-.11 1.01-.113 1.504-.004.46-.196.752-.542 1.012-.502.377-.487.398-.434 1.052.01.115.02.231.022.347.01.593.286.995.8 1.23l.157.068v1.164h-.725c0 .167-.004.303.001.439.046 1.173.207 2.332.415 3.483.362 2.01.765 4.013 1.095 6.029.19 1.152.273 2.323.397 3.486.02.177.003.359.003.534-.265.089-9.322.117-9.855.027-.017-.49.007-.986.05-1.482.188-2.17.631-4.296 1.04-6.428.3-1.565.597-3.13.748-4.72.041-.433.053-.869.08-1.337l-.752-.04v-1.122c.02-.017.043-.053.075-.065.597-.222.881-.674.902-1.32.01-.309.102-.653 0-.916-.094-.244-.383-.42-.61-.59-.235-.175-.323-.389-.336-.682-.019-.45-.077-.897-.115-1.346-.009-.1-.001-.2-.001-.32.09-.008.174-.022.258-.022.356-.003.712-.001 1.093-.001zm-6.667 2.835c.01.09.03.187.031.285.004.463-.003.927.004 1.39.003.18-.03.31-.188.421-.434.307-.637.747-.588 1.294.08.884.161 1.767.26 2.649.187 1.687.396 3.372.58 5.06.177 1.638.28 3.282.287 4.932.002.5 0 1 0 1.549h-4.444c-.02-.174-.045-.347-.057-.522-.085-1.297-.159-2.595-.257-3.891-.03-.407-.077-.826-.2-1.21-.274-.854-.958-1.346-1.76-1.338-.805.008-1.455.52-1.754 1.362-.166.47-.163.962-.198 1.447-.092 1.284-.167 2.569-.25 3.853-.007.088-.026.175-.039.255-.277.08-3.923.101-4.404.024-.012-.155-.031-.319-.037-.483-.048-1.56.02-3.117.161-4.668.161-1.767.37-3.53.561-5.295.127-1.164.257-2.327.393-3.489.078-.657-.093-1.192-.632-1.58a.359.359 0 0 1-.135-.244c-.012-.591-.006-1.183-.006-1.767.28-.087 12.075-.115 12.672-.034zM29.996 39.73l.193 1.462h1.328l.21-1.438h1.518l.212 1.447h1.325l.19-1.444h1.352c0 .124.01.248-.001.37-.042.5-.097 1-.133 1.5a.46.46 0 0 1-.183.356c-.215.172-.42.36-.635.533a.351.351 0 0 0-.146.33c.03.359.034.72.079 1.078.049.396.273.682.602.878.106.063.218.113.335.173v1.143h-.719c-.004.165-.013.3-.01.435.036 1.188.208 2.359.416 3.523.36 2.024.752 4.041 1.11 6.066a25.08 25.08 0 0 1 .387 3.759v.17l-.026.04a.08.08 0 0 1-.008.009c-.009.009-.02.02-.03.021-.098.01-.196.025-.294.025-3.14-.002-6.28-.006-9.42-.011-.02 0-.042-.024-.103-.06.022-.477.028-.978.071-1.475.134-1.54.404-3.058.685-4.575.328-1.768.656-3.537.946-5.312.122-.746.148-1.51.213-2.265.008-.098-.009-.199-.016-.328h-.706v-1.167c.084-.043.195-.094.3-.155.37-.213.604-.528.64-.976.027-.321.037-.643.066-.963.015-.173-.034-.3-.177-.39-.02-.013-.039-.031-.058-.048-.231-.21-.536-.38-.674-.644-.13-.251-.09-.6-.117-.908-.034-.37-.06-.74-.093-1.16h1.371zm64.018-4.6c.048.182.084.297.109.415.112.54.21 1.085.338 1.621a.686.686 0 0 1-.129.636c-.777 1.034-1.538 2.08-2.304 3.123a.837.837 0 0 0-.167.368l3.289-.736c.057.248.113.48.164.712.08.36.155.722.233 1.082v.155c-1.099.243-2.198.484-3.295.731l-4.162.942c-.093.02-.19.02-.311.031l-.398-1.894 1.482-.34 1.52-.35c-1.044-1.122-2.203-1.908-3.628-2.331l-.427-2.032c.196.043.347.067.493.11 1.247.37 2.32 1.068 3.309 1.922.16.14.314.288.512.47l3.372-4.635zm-49.742-1.758l.224 1.605h1.823l.23-1.625h2.83c.036.285.069.561.108.838.037.264.08.528.12.8h1.819l.226-1.638h2.032c.01.097.027.183.024.267-.03.707-.067 1.414-.093 2.122-.006.158-.052.262-.188.343-.138.082-.27.183-.387.296-.364.35-.568.783-.533 1.304.051.77.123 1.538.19 2.307.028.305.068.61.104.94h-9.676c.05-.478.104-.935.147-1.392.051-.551.094-1.102.14-1.654.067-.785-.238-1.374-.876-1.781-.109-.07-.207-.128-.215-.283-.039-.809-.083-1.617-.125-2.418.285-.087 1.602-.105 2.076-.031zm-10.09 1.563c1.21.755 1.471 1.982 1.373 3.342-.29.084-5.719.099-6.124.016-.112-1.312.12-2.506 1.25-3.284 1.132-.78 2.343-.798 3.501-.074zm30.99.026c1.18.766 1.428 1.983 1.333 3.357h-6.12c-.122-1.379.137-2.592 1.315-3.358 1.135-.738 2.337-.737 3.473 0zm21.75-10.827c2.394.004 4.395 2.186 4.385 4.783-.009 2.449-1.955 4.427-4.343 4.415-2.301.018-4.356-2.064-4.365-4.753-.009-2.46 1.952-4.45 4.323-4.445zm-38.93-1.386c.036.072.064.14.102.2 1.368 2.22 2.739 4.438 3.929 6.77.18.35.331.718.49 1.08a1.6 1.6 0 0 1 .124.904c-.008.009-.016.019-.025.027-.01.01-.019.024-.028.024l-8.932.023h-.35a1.462 1.462 0 0 1 .077-.886c.179-.423.353-.85.563-1.258 1.192-2.315 2.552-4.524 3.918-6.73.02-.032.049-.058.132-.154zm38.96 3.31c-1.412.014-2.585 1.239-2.576 2.69.01 1.47 1.147 2.652 2.552 2.65 1.42-.003 2.594-1.203 2.6-2.66.007-1.458-1.182-2.696-2.575-2.68zm-50.438-3.232l.704 2.32 2.288-.529.041.06-1.594 1.8 1.598 1.81-.024.057-2.31-.535-.698 2.316-.072.012-.708-2.328-.935.218-1.454.339c.568-.687 1.128-1.264 1.651-1.893l-1.561-1.766.043-.08 2.257.518.701-2.31.073-.01zm24.734 1.436c1.195 1.27 1.157 3.331-.09 4.536-1.43 1.38-3.396.876-4.122-.034.923.197 1.72.032 2.356-.675A2.324 2.324 0 0 0 60 26.362c-.04-.767-.37-1.38-.972-1.825-.59-.435-1.248-.516-2.015-.33.86-1.006 2.885-1.378 4.235.056zm16.386-13.76l1.448 1.232-2.932 4.273c.016.027.02.038.027.044.01.007.025.016.033.013l4.87-2.168.787.945-1.977 5.035.058.05 4.064-3.162 1.227 1.501-6.491 4.756-1.303-1.417 1.961-5.054c-.209.088-.33.137-.451.19-1.38.597-2.76 1.19-4.135 1.797-.234.103-.396.11-.58-.106-.334-.395-.7-.76-1.081-1.169l4.475-6.76zm-29.656 8.032c.866.006 1.55.729 1.54 1.627-.01.891-.72 1.618-1.572 1.607-.86-.011-1.54-.74-1.532-1.641.008-.911.683-1.6 1.564-1.593zM63.314 2.453l1.759.651-1.396 5.109.07.04 3.884-3.77 1.063.513-.244 5.509c.028.01.055.022.083.033l2.802-4.39c.545.318 1.07.642 1.635.991l-4.581 6.752-1.685-.807.217-5.379-.053-.029c-.01-.004-.025-.011-.033-.007-.032.018-.066.036-.093.06l-3.765 3.556-1.717-.826 1.366-5.327.688-2.68zm-33.205 1.03c1.13 2.491 2.254 4.974 3.4 7.504l-3.617 1.778-1.825.897-.678-1.49 3.721-1.833-.656-1.449-3.106 1.519-.676-1.485 3.103-1.534-.709-1.565-3.722 1.821-.678-1.486 5.443-2.678zM43.833 0c.082.623.157 1.248.248 1.87.3 2.06.606 4.118.908 6.178.007.048 0 .099 0 .177-.52.092-1.028.195-1.54.26-.107.015-.248-.087-.346-.172-1.064-.921-2.123-1.85-3.183-2.777-.369-.322-.737-.646-1.107-.968-.083-.073-.174-.136-.325-.254l.89 4.901-1.829.322-1.458-8.146 1.814-.327c.085.687.577 1.033 1.018 1.422l3.541 3.113c.092.08.19.153.356.286L41.962.347c.533-.094 1.03-.18 1.525-.27.068-.013.132-.05.198-.077h.148zm9.234.078c.497-.01.986.032 1.47.155 1.864.473 2.771 1.924 2.599 3.824-.107 1.177-.289 2.346-.438 3.519-.063.494-.13.988-.199 1.516l-1.847-.26c.01-.17.011-.31.028-.446.158-1.315.324-2.628.474-3.944a5.24 5.24 0 0 0 .023-.962c-.064-.899-.567-1.432-1.426-1.545a2.932 2.932 0 0 0-.296-.022c-.749-.023-1.268.3-1.517 1.04-.158.468-.24.97-.306 1.464-.168 1.26-.308 2.526-.46 3.789-.005.036-.021.071-.05.165l-1.839-.217c.042-.405.077-.773.119-1.14.144-1.278.282-2.556.44-3.831a4.36 4.36 0 0 1 .222-.894C50.546.912 51.659.103 53.067.078z" id="path-1"/></defs><g id="Symbols" stroke="none" stroke-width="1" fill="none" fill-rule="evenodd"><g id="component-/-footer-/-desktop" transform="translate(-1262 -482)"><g id="assets-/-logo" transform="translate(1259 482)"><mask id="mask-2" fill="#fff"><use xlink:href="#path-1"/></mask><use id="Combined-Shape" fill="#000" fill-rule="evenodd" xlink:href="#path-1"/></g></g></g></svg>